<?xml version="1.0" standalone="no"?><!DOCTYPE svg PUBLIC "-//W3C//DTD SVG 1.1//EN" "http://www.w3.org/Graphics/SVG/1.1/DTD/svg11.dtd"><svg t="1741014193341" class="icon" viewBox="0 0 1024 1024" version="1.1" xmlns="http://www.w3.org/2000/svg" p-id="11386" xmlns:xlink="http://www.w3.org/1999/xlink" width="256" height="256"><path d="M1006.949038 512.000085A494.933251 494.933251 0 1 1 512.015787 17.066834v494.933251L862.053062 161.96281A493.346051 493.346051 0 0 1 1006.949038 512.000085z" fill="#FB8F7D" p-id="11387"></path><path d="M904.549055 512.000085A392.533268 392.533268 0 1 1 512.015787 119.466817v392.533268l277.503953-277.503953A391.953001 391.953001 0 0 1 904.549055 512.000085z" fill="#FDD267" p-id="11388"></path><path d="M631.482433 648.533396m-51.199991 0a51.199991 51.199991 0 1 0 102.399983 0 51.199991 51.199991 0 1 0-102.399983 0Z" fill="#F77A8E" p-id="11389"></path><path d="M375.482476 392.533439m-51.199991 0a51.199991 51.199991 0 1 0 102.399983 0 51.199991 51.199991 0 1 0-102.399983 0Z" fill="#F77A8E" p-id="11390"></path><path d="M247.482497 571.733409m-42.666659 0a42.66666 42.66666 0 1 0 85.333319 0 42.66666 42.66666 0 1 0-85.333319 0Z" fill="#F77A8E" p-id="11391"></path><path d="M435.215799 691.200055m-42.666659 0a42.66666 42.66666 0 1 0 85.333319 0 42.66666 42.66666 0 1 0-85.333319 0Z" fill="#F77A8E" p-id="11392"></path><path d="M776.549076 435.200098m-42.66666 0a42.66666 42.66666 0 1 0 85.333319 0 42.66666 42.66666 0 1 0-85.333319 0Z" fill="#F77A8E" p-id="11393"></path><path d="M849.93573 149.896679L529.08245 470.801159V17.066834a17.066664 17.066664 0 0 0-17.066663-17.066663 511.248981 511.248981 0 0 0-264.84049 73.693854 17.066664 17.066664 0 0 0 17.681064 29.201062A476.740187 476.740187 0 0 1 494.949123 34.440698v68.386122a409.855932 409.855932 0 1 0 318.39568 131.976512l48.537592-48.486392A477.866587 477.866587 0 1 1 34.1492 512.000085a473.787654 473.787654 0 0 1 148.292242-346.094875 17.066664 17.066664 0 1 0-23.517863-24.71253A511.999915 511.999915 0 1 0 1024.015701 512.000085a508.688982 508.688982 0 0 0-149.896508-362.103406 17.066664 17.066664 0 0 0-24.183463 0zM887.482391 512.000085A375.466604 375.466604 0 1 1 494.949123 136.960148V512.000085a17.066664 17.066664 0 0 0 29.132795 12.066132l264.840489-264.84049A372.974871 372.974871 0 0 1 887.482391 512.000085z" fill="#373737" p-id="11394"></path><path d="M631.482433 716.800051a68.266655 68.266655 0 1 0-68.266655-68.266655 68.266655 68.266655 0 0 0 68.266655 68.266655z m0-102.399983a34.133328 34.133328 0 1 1-34.133327 34.133328 34.133328 34.133328 0 0 1 34.133327-34.133328zM375.482476 324.266783a68.266655 68.266655 0 1 0 68.266655 68.266656 68.266655 68.266655 0 0 0-68.266655-68.266656z m0 102.399983a34.133328 34.133328 0 1 1 34.133328-34.133327 34.133328 34.133328 0 0 1-34.133328 34.133327zM247.482497 512.000085a59.733323 59.733323 0 1 0 59.733324 59.733324 59.733323 59.733323 0 0 0-59.733324-59.733324z m0 85.333319a25.599996 25.599996 0 1 1 25.599996-25.599995 25.599996 25.599996 0 0 1-25.599996 25.599995zM435.215799 631.466732a59.733323 59.733323 0 1 0 59.733324 59.733323 59.733323 59.733323 0 0 0-59.733324-59.733323z m0 85.333319a25.599996 25.599996 0 1 1 25.599996-25.599996 25.599996 25.599996 0 0 1-25.599996 25.599996zM776.549076 494.933422a59.733323 59.733323 0 1 0-59.733323-59.733324 59.733323 59.733323 0 0 0 59.733323 59.733324z m0-85.33332a25.599996 25.599996 0 1 1-25.599996 25.599996 25.599996 25.599996 0 0 1 25.599996-25.599996zM253.575296 341.333447a17.066664 17.066664 0 0 0 13.653331-6.826665A321.46768 321.46768 0 0 1 442.042465 213.623602a17.066664 17.066664 0 1 0-8.533332-33.075195A355.874074 355.874074 0 0 0 239.939032 314.026785a17.066664 17.066664 0 0 0 13.653331 27.306662zM198.176906 425.3185a17.066664 17.066664 0 0 0 22.357329-9.079465q3.515733-8.328532 7.355732-16.366931a17.066664 17.066664 0 0 0-30.839461-14.677331c-2.7648 5.836799-5.410132 11.775998-7.953066 17.766397a17.066664 17.066664 0 0 0 9.079466 22.35733zM525.976318 818.841634Q519.047252 819.200034 512.015787 819.200034a17.066664 17.066664 0 0 0 0 34.133328q7.884799 0 15.70133-0.375467a17.066664 17.066664 0 0 0-1.706666-34.133327zM756.768813 689.493389A321.46768 321.46768 0 0 1 581.989108 810.376569a17.066664 17.066664 0 0 0 4.215466 33.604261 17.356797 17.356797 0 0 0 4.2496-0.529067A355.874074 355.874074 0 0 0 784.092541 709.973386a17.066664 17.066664 0 1 0-27.306662-20.479997zM825.854668 598.681671a17.066664 17.066664 0 0 0-22.35733 9.079465q-3.515733 8.328532-7.355732 16.366931a17.066664 17.066664 0 0 0 30.839462 14.677331c2.7648-5.836799 5.410132-11.775998 7.953065-17.766398a17.066664 17.066664 0 0 0-9.079465-22.357329zM404.615271 517.000618a17.066664 17.066664 0 0 0-24.132262 24.132262l17.066663 17.066664a17.066664 17.066664 0 0 0 24.132263-24.132262zM319.281952 670.600592a17.066664 17.066664 0 0 0-24.132263 24.132263l17.066664 17.066664a17.066664 17.066664 0 0 0 24.132263-24.132263zM682.682425 563.200077a17.066664 17.066664 0 0 0 12.066131-5.000533l17.066664-17.066664a17.066664 17.066664 0 0 0-24.132263-24.132262l-17.066663 17.066664A17.066664 17.066664 0 0 0 682.682425 563.200077zM499.949655 585.267273a17.066664 17.066664 0 1 0 24.132263 24.132263l17.066664-17.066664a17.066664 17.066664 0 0 0-24.132263-24.132263z" fill="#373737" p-id="11395"></path></svg>