<?xml version="1.0" standalone="no"?><!DOCTYPE svg PUBLIC "-//W3C//DTD SVG 1.1//EN" "http://www.w3.org/Graphics/SVG/1.1/DTD/svg11.dtd"><svg t="1741014163083" class="icon" viewBox="0 0 1024 1024" version="1.1" xmlns="http://www.w3.org/2000/svg" p-id="10351" xmlns:xlink="http://www.w3.org/1999/xlink" width="256" height="256"><path d="M1006.933333 512c0 273.341867-221.591467 494.933333-494.933333 494.933333S17.066667 785.341867 17.066667 512 238.658133 17.066667 512 17.066667s494.933333 221.591467 494.933333 494.933333z m0 0" fill="#F09E3E" p-id="10352"></path><path d="M921.6 512c0 226.218667-183.381333 409.6-409.6 409.6S102.4 738.218667 102.4 512 285.781333 102.4 512 102.4s409.6 183.381333 409.6 409.6z m0 0" fill="#FFCC33" p-id="10353"></path><path d="M932.475733 744.667733L546.033067 520.533333l386.442666-224.1344A17.073067 17.073067 0 0 0 938.666667 273.066667a17.066667 17.066667 0 0 0-23.3344-6.208L529.066667 490.907733V34.133333a17.066667 17.066667 0 0 0-34.133334 0v456.7744L108.6656 266.858667A17.066667 17.066667 0 0 0 85.333333 273.066667a17.073067 17.073067 0 0 0 6.190934 23.3344L477.966933 520.533333 91.524267 744.667733A17.073067 17.073067 0 0 0 85.333333 768a17.066667 17.066667 0 0 0 23.3344 6.208L494.933333 550.158933V989.866667a17.066667 17.066667 0 0 0 34.133334 0V550.158933L915.3344 774.208A17.066667 17.066667 0 0 0 938.666667 768a17.073067 17.073067 0 0 0-6.190934-23.3344z m0 0" fill="#D68033" p-id="10354"></path><path d="M290.133333 324.266667c-28.2752 0-51.2-22.9248-51.2-51.2h34.133334a17.066667 17.066667 0 0 0 34.133333 0h34.133333c0 28.2752-22.9248 51.2-51.2 51.2z m0 0M648.533333 375.466667v-34.133334a17.066667 17.066667 0 0 0 0-34.133333v-34.133333c28.2752 0 51.2 22.9248 51.2 51.2s-22.9248 51.2-51.2 51.2z m0 0M870.4 460.8h-34.133333a17.066667 17.066667 0 0 0-34.133334 0h-34.133333c0-28.2752 22.9248-51.2 51.2-51.2s51.2 22.9248 51.2 51.2z m0 0M785.066667 750.933333h-34.133334a17.066667 17.066667 0 0 0-34.133333 0h-34.133333c0-28.2752 22.9248-51.2 51.2-51.2s51.2 22.9248 51.2 51.2z m0 0M375.466667 750.933333c-28.2752 0-51.2-22.9248-51.2-51.2s22.9248-51.2 51.2-51.2v34.133334a17.066667 17.066667 0 0 0 0 34.133333z m0 0M204.8 631.466667c-28.2752 0-51.2-22.9248-51.2-51.2h34.133333a17.066667 17.066667 0 0 0 34.133334 0h34.133333c0 28.2752-22.9248 51.2-51.2 51.2z m0 0" fill="#88B337" p-id="10355"></path><path d="M426.666667 238.933333c-18.850133 0-34.133333-15.2832-34.133334-34.133333s15.2832-34.133333 34.133334-34.133333 34.133333 15.2832 34.133333 34.133333-15.2832 34.133333-34.133333 34.133333z m0-34.133333M392.533333 341.333333c-18.850133 0-34.133333-15.2832-34.133333-34.133333s15.2832-34.133333 34.133333-34.133333 34.133333 15.2832 34.133334 34.133333-15.2832 34.133333-34.133334 34.133333z m0-34.133333M614.4 204.8c0 18.850133-15.2832 34.133333-34.133333 34.133333s-34.133333-15.2832-34.133334-34.133333 15.2832-34.133333 34.133334-34.133333 34.133333 15.2832 34.133333 34.133333z m0 0M750.933333 238.933333c0 18.850133-15.2832 34.133333-34.133333 34.133334s-34.133333-15.2832-34.133333-34.133334 15.2832-34.133333 34.133333-34.133333 34.133333 15.2832 34.133333 34.133333z m0 0M819.2 631.466667c-18.850133 0-34.133333-15.2832-34.133333-34.133334s15.2832-34.133333 34.133333-34.133333 34.133333 15.2832 34.133333 34.133333-15.2832 34.133333-34.133333 34.133334z m0-34.133334M682.666667 546.133333c-18.850133 0-34.133333-15.2832-34.133334-34.133333s15.2832-34.133333 34.133334-34.133333 34.133333 15.2832 34.133333 34.133333-15.2832 34.133333-34.133333 34.133333z m0-34.133333M597.333333 853.333333c-18.850133 0-34.133333-15.2832-34.133333-34.133333s15.2832-34.133333 34.133333-34.133333 34.133333 15.2832 34.133334 34.133333-15.2832 34.133333-34.133334 34.133333z m0-34.133333M614.4 733.866667c-18.850133 0-34.133333-15.2832-34.133333-34.133334s15.2832-34.133333 34.133333-34.133333 34.133333 15.2832 34.133333 34.133333-15.2832 34.133333-34.133333 34.133334z m0-34.133334M477.866667 819.2c0 18.850133-15.2832 34.133333-34.133334 34.133333s-34.133333-15.2832-34.133333-34.133333 15.2832-34.133333 34.133333-34.133333 34.133333 15.2832 34.133334 34.133333z m0 0M341.333333 785.066667c0 18.850133-15.2832 34.133333-34.133333 34.133333s-34.133333-15.2832-34.133333-34.133333 15.2832-34.133333 34.133333-34.133334 34.133333 15.2832 34.133333 34.133334z m0 0M204.8 460.8c-18.850133 0-34.133333-15.2832-34.133333-34.133333s15.2832-34.133333 34.133333-34.133334 34.133333 15.2832 34.133333 34.133334-15.2832 34.133333-34.133333 34.133333z m0-34.133333M290.133333 546.133333c-18.850133 0-34.133333-15.2832-34.133333-34.133333s15.2832-34.133333 34.133333-34.133333 34.133333 15.2832 34.133334 34.133333-15.2832 34.133333-34.133334 34.133333z m0-34.133333" fill="#F05D46" p-id="10356"></path><path d="M426.666667 375.466667h34.133333v34.133333h-34.133333z m0 0M307.2 204.8h34.133333v34.133333h-34.133333z m0 0M580.266667 290.133333h34.133333v34.133334h-34.133333z m0 0M563.2 375.466667h34.133333v34.133333h-34.133333z m0 0M733.866667 529.066667h34.133333v34.133333h-34.133333z m0 0M819.2 494.933333h34.133333v34.133334h-34.133333z m0 0M546.133333 597.333333h34.133334v34.133334h-34.133334z m0 0M682.666667 785.066667h34.133333v34.133333h-34.133333z m0 0M426.666667 716.8h34.133333v34.133333h-34.133333z m0 0M409.6 631.466667h34.133333v34.133333h-34.133333z m0 0M358.4 494.933333h34.133333v34.133334h-34.133333z m0 0M170.666667 512h34.133333v34.133333H170.666667z m0 0" fill="#FD882F" p-id="10357"></path><path d="M512 1024c282.766933 0 512-229.233067 512-512S794.766933 0 512 0 0 229.233067 0 512c0.315733 282.632533 229.367467 511.684267 512 512zM111.6672 772.475733l44.373333-25.7088A426.6496 426.6496 0 0 0 494.933333 938.24v51.2c-155.458133-5.632-298.442667-86.574933-383.266133-216.9664zM529.066667 550.158933l309.418666 179.4752A392.526933 392.526933 0 0 1 529.066667 904.106667zM546.033067 520.533333l317.009066-183.874133c57.642667 115.016533 55.0912 251.016533-6.826666 363.790933zM529.066667 490.907733V119.893333c130.282667 5.751467 249.216 75.776 317.44 186.916267z m-34.133334 0L177.493333 306.807467C245.717333 195.669333 364.650667 125.642667 494.933333 119.893333zM477.966933 520.533333L167.7824 700.450133C105.866667 587.675733 103.317333 451.675733 160.96 336.6592zM494.933333 550.158933V904.106667a392.526933 392.526933 0 0 1-309.418666-174.474667zM529.066667 989.44v-51.2c137.216-5.559467 263.374933-76.817067 338.958933-191.4752l44.373333 25.706667C827.5584 902.8864 684.544 983.835733 529.066667 989.444267z m400.949333-246.208l-44.2752-25.6c68.042667-123.368533 70.600533-272.418133 6.826667-398.0416l44.373333-25.717333c72.96 141.5424 70.368 310.190933-6.907733 449.4336z m-9.700267-479.268267l-44.3648 25.7088C801.608533 168.0576 671.483733 91.566933 529.066667 85.76v-51.2c160.699733 5.8176 307.707733 92.017067 391.249066 229.408zM494.933333 34.56v51.2c-142.442667 5.783467-272.590933 82.282667-346.9504 203.9168l-44.373333-25.706667C187.163733 126.557867 334.208 40.349867 494.933333 34.555733zM87.04 293.802667l44.3776 25.723733C67.6416 445.149867 70.199467 594.199467 138.24 717.568l-44.2752 25.6c-77.250133-139.249067-79.808-307.899733-6.826667-449.431467z m0 0" p-id="10358"></path><path d="M460.8 204.8c0 18.850133-15.2832 34.133333-34.133333 34.133333s-34.133333-15.2832-34.133334-34.133333 15.2832-34.133333 34.133334-34.133333 34.133333 15.2832 34.133333 34.133333z m0 0M290.133333 324.266667c28.2752 0 51.2-22.9248 51.2-51.2h-34.133333a17.066667 17.066667 0 0 1-34.133333 0h-34.133334c0 28.2752 22.9248 51.2 51.2 51.2z m0 0M426.666667 307.2c0 18.850133-15.2832 34.133333-34.133334 34.133333s-34.133333-15.2832-34.133333-34.133333 15.2832-34.133333 34.133333-34.133333 34.133333 15.2832 34.133334 34.133333z m0 0M426.666667 375.466667h34.133333v34.133333h-34.133333z m0 0M307.2 204.8h34.133333v34.133333h-34.133333z m0 0M614.4 204.8c0 18.850133-15.2832 34.133333-34.133333 34.133333s-34.133333-15.2832-34.133334-34.133333 15.2832-34.133333 34.133334-34.133333 34.133333 15.2832 34.133333 34.133333z m0 0M648.533333 273.066667v34.133333a17.066667 17.066667 0 0 1 0 34.133333v34.133334c28.2752 0 51.2-22.9248 51.2-51.2s-22.9248-51.2-51.2-51.2z m0 0M750.933333 238.933333c0 18.850133-15.2832 34.133333-34.133333 34.133334s-34.133333-15.2832-34.133333-34.133334 15.2832-34.133333 34.133333-34.133333 34.133333 15.2832 34.133333 34.133333z m0 0M580.266667 290.133333h34.133333v34.133334h-34.133333z m0 0M563.2 375.466667h34.133333v34.133333h-34.133333z m0 0M853.333333 597.333333c0 18.850133-15.2832 34.133333-34.133333 34.133334s-34.133333-15.2832-34.133333-34.133334 15.2832-34.133333 34.133333-34.133333 34.133333 15.2832 34.133333 34.133333z m0 0M819.2 443.733333a17.066667 17.066667 0 0 1 17.066667 17.066667h34.133333c0-28.2752-22.9248-51.2-51.2-51.2s-51.2 22.9248-51.2 51.2h34.133333a17.066667 17.066667 0 0 1 17.066667-17.066667z m0 0M716.8 512c0 18.850133-15.2832 34.133333-34.133333 34.133333s-34.133333-15.2832-34.133334-34.133333 15.2832-34.133333 34.133334-34.133333 34.133333 15.2832 34.133333 34.133333z m0 0M733.866667 529.066667h34.133333v34.133333h-34.133333z m0 0M819.2 494.933333h34.133333v34.133334h-34.133333z m0 0M631.466667 819.2c0 18.850133-15.2832 34.133333-34.133334 34.133333s-34.133333-15.2832-34.133333-34.133333 15.2832-34.133333 34.133333-34.133333 34.133333 15.2832 34.133334 34.133333z m0 0M733.866667 699.733333c-28.2752 0-51.2 22.9248-51.2 51.2h34.133333a17.066667 17.066667 0 0 1 34.133333 0h34.133334c0-28.2752-22.9248-51.2-51.2-51.2z m0 0M648.533333 699.733333c0 18.850133-15.2832 34.133333-34.133333 34.133334s-34.133333-15.2832-34.133333-34.133334 15.2832-34.133333 34.133333-34.133333 34.133333 15.2832 34.133333 34.133333z m0 0M546.133333 597.333333h34.133334v34.133334h-34.133334z m0 0M682.666667 785.066667h34.133333v34.133333h-34.133333z m0 0M477.866667 819.2c0 18.850133-15.2832 34.133333-34.133334 34.133333s-34.133333-15.2832-34.133333-34.133333 15.2832-34.133333 34.133333-34.133333 34.133333 15.2832 34.133334 34.133333z m0 0M375.466667 750.933333v-34.133333a17.066667 17.066667 0 0 1 0-34.133333v-34.133334c-28.2752 0-51.2 22.9248-51.2 51.2s22.9248 51.2 51.2 51.2z m0 0M341.333333 785.066667c0 18.850133-15.2832 34.133333-34.133333 34.133333s-34.133333-15.2832-34.133333-34.133333 15.2832-34.133333 34.133333-34.133334 34.133333 15.2832 34.133333 34.133334z m0 0M426.666667 716.8h34.133333v34.133333h-34.133333z m0 0M409.6 631.466667h34.133333v34.133333h-34.133333z m0 0M238.933333 426.666667c0 18.850133-15.2832 34.133333-34.133333 34.133333s-34.133333-15.2832-34.133333-34.133333 15.2832-34.133333 34.133333-34.133334 34.133333 15.2832 34.133333 34.133334z m0 0M204.8 597.333333a17.066667 17.066667 0 0 1-17.066667-17.066666H153.6c0 28.2752 22.9248 51.2 51.2 51.2s51.2-22.9248 51.2-51.2h-34.133333a17.066667 17.066667 0 0 1-17.066667 17.066666z m0 0M324.266667 512c0 18.850133-15.2832 34.133333-34.133334 34.133333s-34.133333-15.2832-34.133333-34.133333 15.2832-34.133333 34.133333-34.133333 34.133333 15.2832 34.133334 34.133333z m0 0M358.4 494.933333h34.133333v34.133334h-34.133333z m0 0M170.666667 512h34.133333v34.133333H170.666667z m0 0" p-id="10359"></path></svg>