<?xml version="1.0" standalone="no"?><!DOCTYPE svg PUBLIC "-//W3C//DTD SVG 1.1//EN" "http://www.w3.org/Graphics/SVG/1.1/DTD/svg11.dtd"><svg t="1741014173250" class="icon" viewBox="0 0 1024 1024" version="1.1" xmlns="http://www.w3.org/2000/svg" p-id="10516" xmlns:xlink="http://www.w3.org/1999/xlink" width="256" height="256"><path d="M224 906.666667a288 32 0 1 0 576 0 288 32 0 1 0-576 0Z" fill="#45413C" p-id="10517"></path><path d="M857.813333 567.466667l5.973334 29.866666s-234.666667 82.346667-346.666667 106.666667c-128 27.093333-331.946667 45.44-399.36 54.826667a82.773333 82.773333 0 0 1-83.84-42.666667l-10.453333-18.56 828.586666-161.706667z" fill="#DEBB7E" p-id="10518"></path><path d="M857.813333 567.466667l-9.813333-51.84c-14.933333-79.36-192-173.44-405.333333-151.68 0 0-40.533333-72.96 21.333333-98.133334s510.293333-110.293333 526.933333 231.04a52.053333 52.053333 0 0 1-42.666666 53.12z" fill="#F0D5A8" p-id="10519"></path><path d="M465.28 265.813333c-40.746667 16.426667-37.546667 53.12-30.506667 76.586667a57.386667 57.386667 0 0 1 24.746667-17.706667c60.373333-24.533333 484.266667-105.386667 524.373333 202.026667a49.92 49.92 0 0 0 8.32-29.866667c-16.64-341.333333-464.64-256.213333-526.933333-231.04z" fill="#F7E5C6" p-id="10520"></path><path d="M857.813333 567.466667l91.52-17.493334a52.053333 52.053333 0 0 0 42.666667-53.12 308.693333 308.693333 0 0 0-15.573333-85.333333 106.666667 106.666667 0 0 0-55.04-3.413333c-50.133333 9.386667-85.333333 49.066667-77.226667 88.32z" fill="#DEBB7E" p-id="10521"></path><path d="M443.52 363.946667l-411.093333 298.666666A26.666667 26.666667 0 0 0 21.333333 689.066667l1.706667 9.386666 9.813333 51.84a26.453333 26.453333 0 0 0 30.933334 21.333334 26.026667 26.026667 0 0 0 21.333333-30.72l-4.906667-26.026667 77.866667-14.72 7.253333 39.04a39.68 39.68 0 0 0 77.866667-14.72l-7.466667-39.04 362.666667-68.693333 4.906667 26.026666a26.453333 26.453333 0 0 0 30.933333 21.333334 26.026667 26.026667 0 0 0 21.333333-30.72l-4.906666-26.026667 129.706666-24.533333 7.253334 39.04a39.68 39.68 0 0 0 77.866666-14.72l-17.28-90.666667c-15.146667-80.213333-191.786667-175.146667-404.693333-152.533333z" fill="#FFE500" p-id="10522"></path><path d="M780.16 581.973333l7.253333 39.04a39.68 39.68 0 0 0 77.866667-14.72l-17.28-90.666666c-14.933333-79.36-192-173.44-405.333333-151.68l-23.253334 16.853333c175.36 5.333333 311.04 85.333333 324.053334 154.24l9.813333 51.84z" fill="#EBCB00" p-id="10523"></path><path d="M135.253333 661.333333a10.88 10.88 0 0 1-10.453333-8.746666 10.666667 10.666667 0 0 1 8.533333-12.373334l647.893334-122.666666a10.666667 10.666667 0 1 1 4.053333 21.333333L137.173333 661.333333z" fill="#EBCB00" p-id="10524"></path><path d="M387.84 495.146667c50.133333-9.386667 86.4-40.32 80.853333-68.906667-3.84-21.333333-28.373333-34.133333-60.373333-36.906667l-115.2 83.84c14.506667 20.266667 52.693333 30.08 94.72 21.973334zM731.733333 537.6a37.12 37.12 0 0 0 7.68-28.373333c-5.333333-28.586667-50.346667-44.16-100.48-34.773334s-85.333333 40.533333-80.853333 69.12a37.546667 37.546667 0 0 0 17.493333 23.466667zM213.333333 635.52a37.12 37.12 0 0 0 7.466667-28.16c-3.84-21.333333-29.013333-34.773333-61.653333-36.906667l-114.133334 82.986667a42.666667 42.666667 0 0 0 12.373334 11.733333zM509.013333 579.626667c-15.146667-27.733333-61.226667-42.666667-111.36-32.64s-87.68 39.68-91.733333 71.68z" fill="#FF6242" p-id="10525"></path></svg>