<?xml version="1.0" standalone="no"?><!DOCTYPE svg PUBLIC "-//W3C//DTD SVG 1.1//EN" "http://www.w3.org/Graphics/SVG/1.1/DTD/svg11.dtd"><svg t="1741014149469" class="icon" viewBox="0 0 1024 1024" version="1.1" xmlns="http://www.w3.org/2000/svg" p-id="10010" xmlns:xlink="http://www.w3.org/1999/xlink" width="256" height="256"><path d="M139.972 914.16l-39.808-154.198L470.256 33.488C481.742 11.17 496.882 0.006 512.022 0c15.14 0.006 30.28 11.17 41.764 33.488l370.09 726.478-39.804 154.198H139.972v-0.004z" fill="#FFD553" p-id="10011"></path><path d="M376.148 524.94c68.324 0 123.71-55.388 123.71-123.71s-55.388-123.71-123.71-123.71c-11.218 0-22.076 1.52-32.41 4.32l-83.224 163.368c17.736 46.602 62.804 79.732 115.634 79.732zM589.616 108.76c0-1.744-0.06-3.472-0.132-5.2l-35.698-70.074C542.302 11.17 527.162 0.006 512.022 0c-15.14 0.006-30.28 11.17-41.766 33.488l-85.77 168.368c21.76 19.046 50.232 30.616 81.422 30.616 68.322-0.004 123.708-55.39 123.708-123.712z m-38.812 244.806c0 68.324 55.388 123.71 123.71 123.71 33.968 0 64.728-13.698 87.084-35.862l-106.956-209.95c-58.872 9.51-103.838 60.548-103.838 122.102z m-77.62 414.706c-68.324 0-123.708 55.388-123.708 123.71 0 7.576 0.718 14.978 2.022 22.178h243.376c1.304-7.2 2.02-14.602 2.02-22.178-0.002-68.322-55.39-123.71-123.71-123.71z m-213.138-221.68c-21.254 0-41.252 5.364-58.724 14.808l-63.86 125.354c8.05 60.54 59.846 107.258 122.586 107.258 68.326 0 123.71-55.388 123.71-123.71s-55.388-123.71-123.712-123.71z m562.696 14.846c-17.49-9.466-37.514-14.844-58.798-14.844-68.324 0-123.708 55.388-123.708 123.708 0 68.324 55.388 123.71 123.708 123.71 62.768 0 114.582-46.76 122.598-107.338l-63.8-125.236z" fill="#FF6376" p-id="10012"></path><path d="M512.008 1024h-0.006c-165.758 0-329.972-40.44-475.816-117.05-9.28-4.874-9.244-12.476-6.936-16.514l70.876-130.472c125.558 68.206 267.984 104.258 411.884 104.258h-0.014c143.9 0 286.326-36.052 411.884-104.258l70.876 130.472c2.306 4.038 2.344 11.64-6.936 16.514C841.974 983.562 677.76 1024 512 1024h-0.006 0.014z" fill="#FDBA55" p-id="10013"></path><path d="M287.568 626.554m-29.082 0a29.082 29.082 0 1 0 58.164 0 29.082 29.082 0 1 0-58.164 0Z" fill="#3F4963" p-id="10014"></path><path d="M736.416 626.554m-29.082 0a29.082 29.082 0 1 0 58.164 0 29.082 29.082 0 1 0-58.164 0Z" fill="#3F4963" p-id="10015"></path><path d="M318.686 728.712h-62.22a16.58 16.58 0 0 1 0-33.158h62.218a16.58 16.58 0 0 1 16.578 16.58 16.574 16.574 0 0 1-16.576 16.578zM767.524 728.712h-62.22a16.58 16.58 0 0 1 0-33.158h62.22a16.58 16.58 0 0 1 16.578 16.58 16.576 16.576 0 0 1-16.578 16.578z" fill="#FF9596" p-id="10016"></path><path d="M475.582 708.62c-29.218 0-52.988-23.77-52.988-52.988a16.578 16.578 0 1 1 33.156 0c0 10.936 8.896 19.83 19.83 19.83 10.938 0 19.836-8.896 19.836-19.83a16.578 16.578 0 1 1 33.156 0c0.004 29.214-23.768 52.988-52.99 52.988z" fill="#3F4963" p-id="10017"></path><path d="M548.406 708.62c-29.218 0-52.988-23.77-52.988-52.988a16.578 16.578 0 1 1 33.156 0c0 10.936 8.896 19.83 19.83 19.83s19.832-8.896 19.832-19.83a16.578 16.578 0 1 1 33.156 0c0.004 29.214-23.768 52.988-52.986 52.988z" fill="#3F4963" p-id="10018"></path></svg>