<?xml version="1.0" standalone="no"?><!DOCTYPE svg PUBLIC "-//W3C//DTD SVG 1.1//EN" "http://www.w3.org/Graphics/SVG/1.1/DTD/svg11.dtd"><svg t="1741014157132" class="icon" viewBox="0 0 1024 1024" version="1.1" xmlns="http://www.w3.org/2000/svg" p-id="10175" xmlns:xlink="http://www.w3.org/1999/xlink" width="256" height="256"><path d="M363.169684 92.672L0 1024s399.252211-157.642105 519.168-203.749053c41.364211-15.952842 34.304 36.621474 34.304 44.624842s2.694737 17.677474 15.386947 17.677474c10.105263 0 13.931789-9.674105 13.93179-17.677474 0-17.273263-18.566737-61.466947 20.587789-77.042526a105.094737 105.094737 0 0 0 16.842106-7.168c59.957895-21.989053 21.557895 83.536842 21.881263 137.269895a41.013895 41.013895 0 0 0 41.660631 44.220631 42.415158 42.415158 0 0 0 39.181474-43.358315c0-54.730105-61.978947-153.303579 14.713263-183.242106 21.935158-8.811789 193.643789-74.617263 193.64379-74.617263A829.493895 829.493895 0 0 0 363.169684 92.672z" fill="#FFC107" p-id="10176"></path><path d="M931.328 660.830316L1024 624.693895A829.682526 829.682526 0 0 0 399.306105 0l-36.136421 92.672a829.601684 829.601684 0 0 1 568.158316 568.158316z" fill="#F57C00" p-id="10177"></path><path d="M673.684211 538.947368m-107.789474 0a107.789474 107.789474 0 1 0 215.578947 0 107.789474 107.789474 0 1 0-215.578947 0Z" fill="#B71C1C" p-id="10178"></path><path d="M727.578947 538.947368m-26.947368 0a26.947368 26.947368 0 1 0 53.894737 0 26.947368 26.947368 0 1 0-53.894737 0Z" fill="#E53935" p-id="10179"></path><path d="M646.736842 485.052632m-26.947368 0a26.947368 26.947368 0 1 0 53.894737 0 26.947368 26.947368 0 1 0-53.894737 0Z" fill="#E53935" p-id="10180"></path><path d="M673.684211 592.842105m-26.947369 0a26.947368 26.947368 0 1 0 53.894737 0 26.947368 26.947368 0 1 0-53.894737 0Z" fill="#E53935" p-id="10181"></path><path d="M296.394105 323.368421a107.142737 107.142737 0 0 0-24.252631 3.018105l-64.673685 165.564632a107.789474 107.789474 0 1 0 88.926316-168.582737z" fill="#B71C1C" p-id="10182"></path><path d="M296.421053 377.263158m-26.947369 0a26.947368 26.947368 0 1 0 53.894737 0 26.947368 26.947368 0 1 0-53.894737 0Z" fill="#E53935" p-id="10183"></path><path d="M296.421053 485.052632m-26.947369 0a26.947368 26.947368 0 1 0 53.894737 0 26.947368 26.947368 0 1 0-53.894737 0Z" fill="#E53935" p-id="10184"></path><path d="M404.210526 700.631579m-107.789473 0a107.789474 107.789474 0 1 0 215.578947 0 107.789474 107.789474 0 1 0-215.578947 0Z" fill="#B71C1C" p-id="10185"></path><path d="M458.105263 673.684211m-26.947368 0a26.947368 26.947368 0 1 0 53.894737 0 26.947368 26.947368 0 1 0-53.894737 0Z" fill="#E53935" p-id="10186"></path><path d="M377.263158 673.684211m-26.947369 0a26.947368 26.947368 0 1 0 53.894737 0 26.947368 26.947368 0 1 0-53.894737 0Z" fill="#E53935" p-id="10187"></path><path d="M404.210526 754.526316m-26.947368 0a26.947368 26.947368 0 1 0 53.894737 0 26.947368 26.947368 0 1 0-53.894737 0Z" fill="#E53935" p-id="10188"></path></svg>