<?xml version="1.0" standalone="no"?><!DOCTYPE svg PUBLIC "-//W3C//DTD SVG 1.1//EN" "http://www.w3.org/Graphics/SVG/1.1/DTD/svg11.dtd"><svg t="1741014120870" class="icon" viewBox="0 0 1024 1024" version="1.1" xmlns="http://www.w3.org/2000/svg" p-id="9279" xmlns:xlink="http://www.w3.org/1999/xlink" width="256" height="256"><path d="M394.24 180.053333L106.666667 917.333333s316.16-124.8 411.093333-161.493333c32.64-12.586667 27.093333 29.013333 27.093333 35.413333s2.133333 14.08 12.16 14.08 11.093333-7.68 11.093334-14.08c0-13.653333-14.72-48.64 16.213333-61.013333 16.213333-6.4 11.52-4.906667 13.44-5.546667 47.36-17.493333 17.066667 66.133333 17.28 108.586667a32.426667 32.426667 0 0 0 33.066667 34.986667 33.493333 33.493333 0 0 0 30.933333-34.346667c0-42.666667-49.28-121.386667 11.733333-145.066667 17.28-7.04 153.173333-59.093333 153.173334-59.093333A656.64 656.64 0 0 0 394.24 180.053333z" fill="#FFC107" p-id="9280"></path><path d="M843.946667 629.76L917.333333 601.173333A656.853333 656.853333 0 0 0 422.826667 106.666667l-28.586667 73.386666a656.64 656.64 0 0 1 449.706667 449.706667z" fill="#F57C00" p-id="9281"></path><path d="M640 533.333333m-85.333333 0a85.333333 85.333333 0 1 0 170.666666 0 85.333333 85.333333 0 1 0-170.666666 0Z" fill="#B71C1C" p-id="9282"></path><path d="M682.666667 533.333333m-21.333334 0a21.333333 21.333333 0 1 0 42.666667 0 21.333333 21.333333 0 1 0-42.666667 0Z" fill="#E53935" p-id="9283"></path><path d="M618.666667 490.666667m-21.333334 0a21.333333 21.333333 0 1 0 42.666667 0 21.333333 21.333333 0 1 0-42.666667 0Z" fill="#E53935" p-id="9284"></path><path d="M640 576m-21.333333 0a21.333333 21.333333 0 1 0 42.666666 0 21.333333 21.333333 0 1 0-42.666666 0Z" fill="#E53935" p-id="9285"></path><path d="M341.333333 362.666667a81.493333 81.493333 0 0 0-19.2 2.346666l-51.2 131.2A85.333333 85.333333 0 1 0 341.333333 362.666667z" fill="#B71C1C" p-id="9286"></path><path d="M341.333333 405.333333m-21.333333 0a21.333333 21.333333 0 1 0 42.666667 0 21.333333 21.333333 0 1 0-42.666667 0Z" fill="#E53935" p-id="9287"></path><path d="M341.333333 490.666667m-21.333333 0a21.333333 21.333333 0 1 0 42.666667 0 21.333333 21.333333 0 1 0-42.666667 0Z" fill="#E53935" p-id="9288"></path><path d="M426.666667 661.333333m-85.333334 0a85.333333 85.333333 0 1 0 170.666667 0 85.333333 85.333333 0 1 0-170.666667 0Z" fill="#B71C1C" p-id="9289"></path><path d="M469.333333 640m-21.333333 0a21.333333 21.333333 0 1 0 42.666667 0 21.333333 21.333333 0 1 0-42.666667 0Z" fill="#E53935" p-id="9290"></path><path d="M405.333333 640m-21.333333 0a21.333333 21.333333 0 1 0 42.666667 0 21.333333 21.333333 0 1 0-42.666667 0Z" fill="#E53935" p-id="9291"></path><path d="M426.666667 704m-21.333334 0a21.333333 21.333333 0 1 0 42.666667 0 21.333333 21.333333 0 1 0-42.666667 0Z" fill="#E53935" p-id="9292"></path></svg>