<?xml version="1.0" standalone="no"?><!DOCTYPE svg PUBLIC "-//W3C//DTD SVG 1.1//EN" "http://www.w3.org/Graphics/SVG/1.1/DTD/svg11.dtd"><svg t="1741014141879" class="icon" viewBox="0 0 1024 1024" version="1.1" xmlns="http://www.w3.org/2000/svg" p-id="9818" xmlns:xlink="http://www.w3.org/1999/xlink" width="256" height="256"><path d="M512 512m-483.555556 0a483.555556 483.555556 0 1 0 967.111112 0 483.555556 483.555556 0 1 0-967.111112 0Z" fill="#EAA74E" p-id="9819"></path><path d="M512 512m-403.000889 0a403.000889 403.000889 0 1 0 806.001778 0 403.000889 403.000889 0 1 0-806.001778 0Z" fill="#FFE27D" p-id="9820"></path><path d="M672.654222 544.881778a68.266667 68.266667 0 0 0-5.461333-13.994667 30.037333 30.037333 0 0 1 0-37.660444 68.266667 68.266667 0 0 0 5.461333-13.994667 42.097778 42.097778 0 0 0-1.365333-18.659556v-0.682666a41.187556 41.187556 0 0 0-22.755556-23.779556 39.025778 39.025778 0 0 1-16.611555-11.377778 41.415111 41.415111 0 0 1-5.575111-19.114666 44.145778 44.145778 0 0 0-3.868445-14.449778 34.133333 34.133333 0 0 0-11.377778-14.449778h-0.568888a40.049778 40.049778 0 0 0-32.312889-5.916444 38.570667 38.570667 0 0 1-19.911111 0 36.295111 36.295111 0 0 1-15.815112-12.174222A41.870222 41.870222 0 0 0 512 344.291556a41.870222 41.870222 0 0 0-29.696 14.222222A36.295111 36.295111 0 0 1 466.488889 370.801778a38.570667 38.570667 0 0 1-19.911111 0 40.049778 40.049778 0 0 0-32.312889 5.916444h-0.568889a34.133333 34.133333 0 0 0-11.377778 14.449778 44.145778 44.145778 0 0 0-3.868444 14.449778 41.415111 41.415111 0 0 1-5.575111 19.114666 39.025778 39.025778 0 0 1-16.611556 11.377778 41.187556 41.187556 0 0 0-22.755555 23.779556v0.682666a42.097778 42.097778 0 0 0-1.024 18.545778 68.266667 68.266667 0 0 0 5.461333 13.994667 30.037333 30.037333 0 0 1 0 37.660444 68.266667 68.266667 0 0 0-5.461333 13.994667 42.097778 42.097778 0 0 0 0.227555 18.659556v0.682666a41.187556 41.187556 0 0 0 22.755556 23.779556 39.025778 39.025778 0 0 1 16.611555 11.377778 41.415111 41.415111 0 0 1 5.575111 19.114666 44.145778 44.145778 0 0 0 3.868445 14.449778 34.133333 34.133333 0 0 0 11.377778 14.449778h0.568888a40.049778 40.049778 0 0 0 32.312889 5.916444 38.570667 38.570667 0 0 1 19.911111 0 36.295111 36.295111 0 0 1 15.815112 12.174222A41.870222 41.870222 0 0 0 512 679.708444a41.870222 41.870222 0 0 0 29.696-14.222222A36.295111 36.295111 0 0 1 557.511111 653.198222a38.570667 38.570667 0 0 1 19.911111 0 40.049778 40.049778 0 0 0 32.312889-5.916444h0.568889a34.133333 34.133333 0 0 0 11.377778-14.449778 44.145778 44.145778 0 0 0 3.868444-14.449778 41.415111 41.415111 0 0 1 5.575111-19.114666 39.025778 39.025778 0 0 1 16.611556-11.377778 41.187556 41.187556 0 0 0 22.755555-23.779556v-0.682666a42.097778 42.097778 0 0 0 2.161778-18.545778z" fill="#51B224" p-id="9821"></path><path d="M512 512m-120.832 0a120.832 120.832 0 1 0 241.664 0 120.832 120.832 0 1 0-241.664 0Z" fill="#E03F00" p-id="9822"></path><path d="M512 512m-96.142222 0a96.142222 96.142222 0 1 0 192.284444 0 96.142222 96.142222 0 1 0-192.284444 0Z" fill="#FF794A" p-id="9823"></path><path d="M512 512m-77.255111 0a77.255111 77.255111 0 1 0 154.510222 0 77.255111 77.255111 0 1 0-154.510222 0Z" fill="#C21111" p-id="9824"></path><path d="M512 434.744889a77.255111 77.255111 0 1 1 0 154.624" fill="#C21111" p-id="9825"></path><path d="M512 428.487111h-16.839111v164.408889h33.678222V428.487111H512z" fill="#FF794A" p-id="9826"></path><path d="M512 512m-29.696 0a29.696 29.696 0 1 0 59.392 0 29.696 29.696 0 1 0-59.392 0Z" fill="#FF794A" p-id="9827"></path><path d="M468.536889 475.818667l14.904889 7.850666-4.209778-17.180444s-0.682667-1.251556-1.251556-2.161778a7.281778 7.281778 0 0 0-10.24-1.137778 7.509333 7.509333 0 0 0-1.479111 10.467556 7.850667 7.850667 0 0 0 2.275556 2.161778zM457.841778 501.76h17.180444L462.734222 489.244444a7.168 7.168 0 0 0-2.616889-1.706666 7.281778 7.281778 0 0 0-5.347555 13.653333 7.395556 7.395556 0 0 0 3.072 0.568889zM462.620444 531.797333l12.515556-11.377777-17.180444-0.796445a7.168 7.168 0 0 0-3.072 0 7.281778 7.281778 0 1 0 7.623111 12.060445zM479.118222 556.259556l4.209778-16.611556-14.904889 8.533333a7.168 7.168 0 0 0-2.389333 2.048 7.281778 7.281778 0 0 0 11.377778 8.874667 7.168 7.168 0 0 0 1.706666-2.844444zM555.463111 475.818667l-14.904889 7.850666 4.209778-17.180444s0.682667-1.251556 1.251556-2.161778a7.281778 7.281778 0 0 1 10.24-1.137778 7.509333 7.509333 0 0 1 1.479111 10.467556 7.850667 7.850667 0 0 1-2.275556 2.161778zM566.158222 501.76h-17.180444l12.288-12.515556a7.281778 7.281778 0 0 1 2.616889-1.706666 7.281778 7.281778 0 0 1 5.347555 13.653333 7.395556 7.395556 0 0 1-3.072 0.568889zM561.379556 531.797333l-12.515556-11.377777 17.180444-0.796445a7.168 7.168 0 0 1 3.072 0 7.281778 7.281778 0 1 1-7.623111 12.060445zM544.881778 556.259556l-4.209778-16.611556 14.904889 8.533333a7.168 7.168 0 0 1 2.389333 2.048 7.281778 7.281778 0 0 1-11.377778 8.874667 7.168 7.168 0 0 1-1.706666-2.844444z" fill="#FA9A00" p-id="9828"></path><path d="M512 245.077333m-82.147556 0a82.147556 82.147556 0 1 0 164.295112 0 82.147556 82.147556 0 1 0-164.295112 0Z" fill="#C52525" p-id="9829"></path><path d="M512 211.399111m-19.228444 0a19.228444 19.228444 0 1 0 38.456888 0 19.228444 19.228444 0 1 0-38.456888 0Z" fill="#D44A4A" p-id="9830"></path><path d="M544.085333 264.305778m-19.228444 0a19.228444 19.228444 0 1 0 38.456889 0 19.228444 19.228444 0 1 0-38.456889 0Z" fill="#D44A4A" p-id="9831"></path><path d="M483.555556 264.305778m-19.228445 0a19.228444 19.228444 0 1 0 38.456889 0 19.228444 19.228444 0 1 0-38.456889 0Z" fill="#D44A4A" p-id="9832"></path><path d="M512 778.922667m-82.147556 0a82.147556 82.147556 0 1 0 164.295112 0 82.147556 82.147556 0 1 0-164.295112 0Z" fill="#C52525" p-id="9833"></path><path d="M512 745.244444m-19.228444 0a19.228444 19.228444 0 1 0 38.456888 0 19.228444 19.228444 0 1 0-38.456888 0Z" fill="#D44A4A" p-id="9834"></path><path d="M544.085333 798.264889m-19.228444 0a19.228444 19.228444 0 1 0 38.456889 0 19.228444 19.228444 0 1 0-38.456889 0Z" fill="#D44A4A" p-id="9835"></path><path d="M483.555556 798.264889m-19.228445 0a19.228444 19.228444 0 1 0 38.456889 0 19.228444 19.228444 0 1 0-38.456889 0Z" fill="#D44A4A" p-id="9836"></path><path d="M762.311111 376.718222m-82.147555 0a82.147556 82.147556 0 1 0 164.295111 0 82.147556 82.147556 0 1 0-164.295111 0Z" fill="#C52525" p-id="9837"></path><path d="M762.311111 343.04m-19.228444 0a19.228444 19.228444 0 1 0 38.456889 0 19.228444 19.228444 0 1 0-38.456889 0Z" fill="#D44A4A" p-id="9838"></path><path d="M794.396444 396.060444m-19.228444 0a19.228444 19.228444 0 1 0 38.456889 0 19.228444 19.228444 0 1 0-38.456889 0Z" fill="#D44A4A" p-id="9839"></path><path d="M733.866667 396.060444m-19.228445 0a19.228444 19.228444 0 1 0 38.456889 0 19.228444 19.228444 0 1 0-38.456889 0Z" fill="#D44A4A" p-id="9840"></path><path d="M261.688889 380.472889m-82.147556 0a82.147556 82.147556 0 1 0 164.295111 0 82.147556 82.147556 0 1 0-164.295111 0Z" fill="#C52525" p-id="9841"></path><path d="M261.688889 346.908444m-19.228445 0a19.228444 19.228444 0 1 0 38.456889 0 19.228444 19.228444 0 1 0-38.456889 0Z" fill="#D44A4A" p-id="9842"></path><path d="M293.888 399.815111m-19.228444 0a19.228444 19.228444 0 1 0 38.456888 0 19.228444 19.228444 0 1 0-38.456888 0Z" fill="#D44A4A" p-id="9843"></path><path d="M233.358222 399.815111m-19.228444 0a19.228444 19.228444 0 1 0 38.456889 0 19.228444 19.228444 0 1 0-38.456889 0Z" fill="#D44A4A" p-id="9844"></path><path d="M762.311111 643.754667m-82.147555 0a82.147556 82.147556 0 1 0 164.295111 0 82.147556 82.147556 0 1 0-164.295111 0Z" fill="#C52525" p-id="9845"></path><path d="M762.311111 610.076444m-19.228444 0a19.228444 19.228444 0 1 0 38.456889 0 19.228444 19.228444 0 1 0-38.456889 0Z" fill="#D44A4A" p-id="9846"></path><path d="M794.396444 662.983111m-19.228444 0a19.228444 19.228444 0 1 0 38.456889 0 19.228444 19.228444 0 1 0-38.456889 0Z" fill="#D44A4A" p-id="9847"></path><path d="M733.866667 662.983111m-19.228445 0a19.228444 19.228444 0 1 0 38.456889 0 19.228444 19.228444 0 1 0-38.456889 0Z" fill="#D44A4A" p-id="9848"></path><path d="M261.688889 647.509333m-82.147556 0a82.147556 82.147556 0 1 0 164.295111 0 82.147556 82.147556 0 1 0-164.295111 0Z" fill="#C52525" p-id="9849"></path><path d="M261.688889 613.831111m-19.228445 0a19.228444 19.228444 0 1 0 38.456889 0 19.228444 19.228444 0 1 0-38.456889 0Z" fill="#D44A4A" p-id="9850"></path><path d="M293.888 666.737778m-19.228444 0a19.228444 19.228444 0 1 0 38.456888 0 19.228444 19.228444 0 1 0-38.456888 0Z" fill="#D44A4A" p-id="9851"></path><path d="M233.358222 666.737778m-19.228444 0a19.228444 19.228444 0 1 0 38.456889 0 19.228444 19.228444 0 1 0-38.456889 0Z" fill="#D44A4A" p-id="9852"></path><path d="M738.872889 536.917333a18.318222 18.318222 0 0 1 6.940444-36.295111 18.318222 18.318222 0 1 1-6.940444 35.953778zM637.155556 706.901333a18.318222 18.318222 0 0 1 29.809777-21.390222A18.318222 18.318222 0 1 1 637.155556 706.901333zM662.755556 789.731556a18.659556 18.659556 0 0 1 10.467555-22.755556 18.887111 18.887111 0 0 1 23.552 9.557333 18.318222 18.318222 0 1 1-34.133333 13.653334zM374.442667 722.602667a18.887111 18.887111 0 0 1 23.779555-9.557334 18.659556 18.659556 0 0 1 10.467556 22.755556 18.318222 18.318222 0 1 1-34.133334-13.653333zM338.488889 795.761778a18.318222 18.318222 0 0 1 29.809778 21.390222 18.318222 18.318222 0 1 1-29.809778-21.390222zM290.816 508.359111a18.318222 18.318222 0 0 1 6.940444 35.953778 18.318222 18.318222 0 1 1-6.940444-35.953778zM181.134222 500.622222a19.228444 19.228444 0 0 1 16.611556 19.342222 19.000889 19.000889 0 0 1-19.114667 17.180445 18.318222 18.318222 0 1 1 2.503111-36.522667zM343.950222 212.081778a18.318222 18.318222 0 0 1-26.510222 25.258666 18.318222 18.318222 0 1 1 26.510222-25.258666zM406.072889 301.169778a18.318222 18.318222 0 1 1-25.258667-7.850667 18.318222 18.318222 0 0 1 25.258667 7.850667zM685.966222 233.585778a18.318222 18.318222 0 1 1-6.940444-25.486222 18.318222 18.318222 0 0 1 6.940444 25.486222zM645.575111 341.333333a18.318222 18.318222 0 0 1-26.510222-25.258666A18.318222 18.318222 0 1 1 645.575111 341.333333zM845.368889 512a19.000889 19.000889 0 0 1-19.114667-17.180444 19.228444 19.228444 0 0 1 16.611556-19.342223A18.318222 18.318222 0 1 1 845.368889 512z" fill="#B8A35A" p-id="9853"></path></svg>