<?xml version="1.0" standalone="no"?><!DOCTYPE svg PUBLIC "-//W3C//DTD SVG 1.1//EN" "http://www.w3.org/Graphics/SVG/1.1/DTD/svg11.dtd"><svg t="1741014110492" class="icon" viewBox="0 0 1024 1024" version="1.1" xmlns="http://www.w3.org/2000/svg" p-id="9115" xmlns:xlink="http://www.w3.org/1999/xlink" width="256" height="256"><path d="M1014.2464 694.7584L345.3184 30.0544a26.0608 26.0608 0 0 0-37.0432 0.256C137.4976 208.8192 30.5664 448.2048 23.9104 712.3456a25.9584 25.9584 0 0 0 26.0608 26.2912h279.3216c28.5696 0 52.864 23.0144 52.864 51.4048v177.792c0 22.4512 12.2112 44.1344 33.7664 50.9184 35.7376 11.264 68.5824-14.9248 68.5824-48.768v-154.24c0 33.8432 32.8704 60.032 68.608 48.768 21.5552-6.784 34.8928-28.4672 34.8928-50.9184v-36.4032c0-21.2992 17.3824-38.5536 38.8096-38.5536s36.5312 17.2544 36.5312 38.5536v74.0608c0 30.0288 21.504 58.3936 50.8928 65.408 42.6752 10.2144 80.7424-21.6576 80.7424-62.336v-64.2816c0-28.3904 23.1424-51.4048 51.7376-51.4048h149.2224c23.0656 0 34.6112-27.6992 18.304-43.8784" fill="#EEAF4B" p-id="9116"></path><path d="M362.7776 353.5872a51.2 51.2 0 0 1-51.1744-51.2512 51.2 51.2 0 1 1 102.3744 0 51.2256 51.2256 0 0 1-51.2 51.2512" fill="#88C057" p-id="9117"></path><path d="M292.4032 637.0048a89.4208 89.4208 0 0 1-89.5744-89.2672 89.4208 89.4208 0 0 1 89.5744-89.2928 89.4464 89.4464 0 0 1 89.5744 89.2928 89.4208 89.4208 0 0 1-89.5744 89.2672z m307.1232-51.0208a63.872 63.872 0 0 1-63.9744-63.7696 63.8976 63.8976 0 0 1 63.9744-63.7696c35.3536 0 64 28.5696 64 63.7696a63.872 63.872 0 0 1-64 63.7696z" fill="#ED7161" p-id="9118"></path></svg>