<?xml version="1.0" standalone="no"?><!DOCTYPE svg PUBLIC "-//W3C//DTD SVG 1.1//EN" "http://www.w3.org/Graphics/SVG/1.1/DTD/svg11.dtd"><svg t="1741014101073" class="icon" viewBox="0 0 1024 1024" version="1.1" xmlns="http://www.w3.org/2000/svg" p-id="8934" xmlns:xlink="http://www.w3.org/1999/xlink" width="256" height="256"><path d="M128.776 839.224a361.616 94.504 0 1 0 723.232 0 361.616 94.504 0 1 0-723.232 0Z" fill="#B8CBCD" p-id="8935"></path><path d="M128.776 376.896c0 276.592 224.224 500.816 500.816 500.816L938.832 37.728 128.776 376.896z" fill="#F7BB83" p-id="8936"></path><path d="M713.776 288.52c0 54.248 34.824 100.248 83.296 117.184l20.696-56.224c-25.552-8.48-44.024-32.544-44.024-60.96a64.256 64.256 0 0 1 64.264-64.256c8.528 0 16.664 1.696 24.128 4.728l20.696-56.232a123.736 123.736 0 0 0-44.824-8.472c-68.624 0-124.232 55.624-124.232 124.232z" fill="#FFFFFF" p-id="8937"></path><path d="M797.072 421.72c-1.752 0-3.528-0.296-5.28-0.904-56.232-19.648-94.016-72.816-94.016-132.288 0-77.328 62.904-140.232 140.232-140.232 17.216 0 34.24 3.208 50.6 9.544a16 16 0 0 1 9.232 20.448l-20.696 56.232c-1.504 4.072-4.584 7.36-8.544 9.112a15.92 15.92 0 0 1-12.496 0.184 47.952 47.952 0 0 0-18.104-3.544 48.32 48.32 0 0 0-48.264 48.256 48.176 48.176 0 0 0 33.064 45.776 15.984 15.984 0 0 1 9.976 20.712l-20.696 56.224a16 16 0 0 1-15.008 10.48z m40.936-241.432c-59.68 0-108.232 48.552-108.232 108.232 0 40.584 22.816 77.36 58.112 95.824l9.744-26.472a80.096 80.096 0 0 1-39.88-69.352c0-44.256 36.008-80.256 80.264-80.256 4.808 0 9.552 0.432 14.232 1.272l9.76-26.504a106.56 106.56 0 0 0-24-2.744z" fill="#3C663E" p-id="8938"></path><path d="M838.008 224.264a64.256 64.256 0 0 0-64.264 64.256c0 28.416 18.472 52.48 44.024 60.96l44.368-120.488a63.952 63.952 0 0 0-24.128-4.728z" fill="#FFFFFF" p-id="8939"></path><path d="M817.768 365.48c-1.672 0-3.368-0.256-5.04-0.816a80.136 80.136 0 0 1-54.984-76.152c0-44.256 36.008-80.256 80.264-80.256 10.36 0 20.504 1.984 30.152 5.904a16 16 0 0 1 8.992 20.352l-44.368 120.496a16.016 16.016 0 0 1-15.016 10.472z m20.24-125.216a48.32 48.32 0 0 0-48.264 48.256c0 15.472 7.344 29.6 19.224 38.536l31.928-86.712c-0.96-0.048-1.92-0.08-2.888-0.08z" fill="#3C663E" p-id="8940"></path><path d="M291.344 305.744c-0.208 3.392-0.52 6.76-0.52 10.2 0 89.336 72.424 161.76 161.768 161.76s161.76-72.424 161.76-161.76c0-48.784-21.688-92.416-55.832-122.072L291.344 305.744z" fill="#FFBAB0" p-id="8941"></path><path d="M452.592 493.712c-98.016 0-177.768-79.744-177.768-177.76 0-3.008 0.192-5.96 0.392-8.912l0.152-2.28a15.984 15.984 0 0 1 9.792-13.768L552.344 179.12a15.968 15.968 0 0 1 16.672 2.68 177.72 177.72 0 0 1 61.336 134.152c0 98.016-79.744 177.76-177.76 177.76z m-145.76-177.104c0.36 80.072 65.608 145.104 145.768 145.104 80.368 0 145.76-65.384 145.76-145.76 0-38.864-15.616-76-43.152-103.336L306.832 316.608z" fill="#783741" p-id="8942"></path><path d="M471.408 402.464m-30.096 0a30.096 30.096 0 1 0 60.192 0 30.096 30.096 0 1 0-60.192 0Z" fill="#FFFFFF" p-id="8943"></path><path d="M471.408 448.568a46.152 46.152 0 0 1-46.096-46.104c0-25.416 20.672-46.096 46.096-46.096s46.096 20.68 46.096 46.096a46.152 46.152 0 0 1-46.096 46.104z m0-60.192c-7.768 0-14.096 6.32-14.096 14.096s6.328 14.104 14.096 14.104 14.096-6.328 14.096-14.104-6.328-14.096-14.096-14.096z" fill="#783741" p-id="8944"></path><path d="M392.928 343.616m-30.096 0a30.096 30.096 0 1 0 60.192 0 30.096 30.096 0 1 0-60.192 0Z" fill="#FFFFFF" p-id="8945"></path><path d="M392.928 389.712c-25.424 0-46.104-20.68-46.104-46.096s20.68-46.096 46.104-46.096c25.408 0 46.088 20.68 46.088 46.096s-20.672 46.096-46.088 46.096z m0-60.192c-7.776 0-14.104 6.32-14.104 14.096s6.328 14.096 14.104 14.096a14.104 14.104 0 0 0 0-28.192z" fill="#783741" p-id="8946"></path><path d="M531.592 312.184m-30.096 0a30.096 30.096 0 1 0 60.192 0 30.096 30.096 0 1 0-60.192 0Z" fill="#FFFFFF" p-id="8947"></path><path d="M531.592 358.28a46.152 46.152 0 0 1-46.096-46.096 46.144 46.144 0 0 1 46.096-46.104 46.152 46.152 0 0 1 46.096 46.104 46.152 46.152 0 0 1-46.096 46.096z m0-60.192c-7.768 0-14.096 6.328-14.096 14.104s6.328 14.096 14.096 14.096 14.096-6.32 14.096-14.096-6.32-14.104-14.096-14.104z" fill="#783741" p-id="8948"></path><path d="M770.832 494.688c-19.392-22.32-47.912-36.504-79.808-36.504-58.416 0-105.768 47.352-105.768 105.76 0 58.416 47.352 105.768 105.768 105.768 2.248 0 4.456-0.192 6.664-0.336l73.144-174.688z" fill="#FFBAB0" p-id="8949"></path><path d="M691.024 685.712c-67.144 0-121.768-54.624-121.768-121.768s54.624-121.76 121.768-121.76c35.2 0 68.688 15.312 91.88 42.008a16 16 0 0 1 2.68 16.672l-73.144 174.688a16.016 16.016 0 0 1-13.744 9.792l-1.36 0.096a96.48 96.48 0 0 1-6.312 0.272z m0-211.528c-49.504 0-89.768 40.264-89.768 89.76 0 48.128 38.072 87.528 85.68 89.672l65.072-155.408a89.616 89.616 0 0 0-60.984-24.024z" fill="#783741" p-id="8950"></path><path d="M629.584 901.712c-289.384 0-524.816-235.432-524.816-524.816 0-9.672 5.808-18.4 14.728-22.144L929.56 15.584a24 24 0 0 1 31.784 30.432L652.112 886a24.024 24.024 0 0 1-22.528 15.712zM153.04 392.752c8.216 250.072 209.944 452.056 459.92 460.664l284.312-772.272L153.04 392.752z" fill="#6E4123" p-id="8951"></path><path d="M338.832 621.712c-36-36-29.48-108.224-64-160-32-48-64-56-104-96-1.552-1.552-13.68-6.168-16-8l-16 8.312c0 276.592 224.216 500.816 500.816 500.816l49.128-133.432c-40.896-8.84-112.536 21.696-157.936-23.696-56.008-56-156.008-52-192.008-88z" fill="#F6E89A" p-id="8952"></path><path d="M639.64 882.832c-284.976 0-516.816-231.84-516.816-516.816 0-5.968 3.328-11.448 8.624-14.192l16-8.312a16 16 0 0 1 16.496 1.048c1.288 0.712 3.408 1.616 5.488 2.552 6.816 3.056 9.944 4.52 12.704 7.28 14.952 14.944 28.864 25.288 42.32 35.288 21.992 16.336 42.76 31.776 63.68 63.152 17.856 26.792 25.632 58.328 32.48 86.16 7.04 28.576 13.68 55.568 29.52 71.408 13.072 13.072 40.528 20.824 69.6 29.024 41.424 11.696 88.368 24.944 122.4 58.976 14.504 14.504 33.696 20.976 62.2 20.976 11.32 0 22.904-0.968 34.112-1.904 20.488-1.712 39.816-2.712 53.696 0.296a16.024 16.024 0 0 1 11.632 21.168l-49.128 133.432a15.984 15.984 0 0 1-15.008 10.464z m-484.72-507.136c5.096 259.168 214.616 469.152 473.608 475.016l37.912-102.984c-7.776 0.168-16.328 0.88-25.328 1.632-11.856 0.992-24.128 2.016-36.776 2.016-23.384 0-57.624-3.152-84.832-30.352-28.128-28.128-70.816-40.176-108.472-50.808-33.2-9.376-64.56-18.224-83.528-37.192-22.152-22.152-29.832-53.352-37.968-86.384-6.528-26.504-13.28-53.92-28.032-76.056-17.832-26.76-35.584-39.944-56.144-55.216-13.336-9.904-28.408-21.112-44.504-37-1.216-0.6-2.872-1.312-4.528-2.056l-1.4-0.632-0.008 0.016z" fill="#6E4123" p-id="8953"></path><path d="M629.584 901.712c-289.384 0-524.816-235.432-524.816-524.816 0-9.672 5.808-18.4 14.728-22.144L929.56 15.584a24 24 0 0 1 31.784 30.432L652.112 886a24.024 24.024 0 0 1-22.528 15.712zM153.04 392.752c8.216 250.072 209.944 452.056 459.92 460.664l284.312-772.272L153.04 392.752z" fill="#6E4123" p-id="8954"></path></svg>